<?xml version="1.0" ?><!DOCTYPE svg  PUBLIC '-//W3C//DTD SVG 1.1//EN'  'http://www.w3.org/Graphics/SVG/1.1/DTD/svg11.dtd'><svg enable-background="new 0 0 40 40" version="1.1" viewBox="0 0 40 40" xml:space="preserve" xmlns="http://www.w3.org/2000/svg" xmlns:xlink="http://www.w3.org/1999/xlink"><g id="Controls"><g id="D71_4_"/><g id="D61_4_"><g><g id="D61"><g><path clip-rule="evenodd" d="M31.5,10h-23C7.7,10,7,10.7,7,11.5v17C7,29.3,7.7,30,8.5,30       h23c0.8,0,1.5-0.7,1.5-1.5v-17C33,10.7,32.3,10,31.5,10z" fill="#1ABC9C" fill-rule="evenodd"/></g></g><g id="D61_2_"><g><path clip-rule="evenodd" d="M17.6,19.7c-0.2-0.2-0.5-0.4-0.8-0.6c-0.7-0.3-1.4-0.3-2,0       c-0.1,0-0.2,0.1-0.3,0.2c0-0.2,0.1-0.4,0.2-0.6c0.1-0.2,0.2-0.3,0.3-0.5c0.2-0.2,0.7-0.2,0.9,0c0.1,0.1,0.2,0.3,0.3,0.5l0,0.2       h1.8l0-0.3c0-0.3-0.1-0.6-0.3-0.9c-0.1-0.3-0.3-0.5-0.6-0.7c-0.2-0.2-0.5-0.3-0.8-0.4c-0.3-0.1-0.6-0.1-0.9-0.1       c-0.5,0-1,0.1-1.4,0.4c-0.4,0.2-0.7,0.6-0.9,0.9c-0.2,0.4-0.4,0.8-0.5,1.3c-0.1,0.4-0.2,0.9-0.2,1.4c0,0.5,0,0.9,0.1,1.4       c0.1,0.5,0.2,0.9,0.5,1.2c0.2,0.4,0.5,0.7,0.9,0.9c0.4,0.2,0.9,0.4,1.4,0.4c0.4,0,0.8-0.1,1.1-0.2c0.3-0.1,0.6-0.3,0.9-0.6       c0.2-0.3,0.4-0.6,0.6-0.9c0.1-0.3,0.2-0.7,0.2-1.1c0-0.3,0-0.6-0.1-0.9C18,20.2,17.9,19.9,17.6,19.7z M16.3,21.9       c0,0.1-0.1,0.2-0.2,0.3c-0.1,0.1-0.2,0.2-0.3,0.2c-0.2,0.1-0.5,0.1-0.7,0c-0.1-0.1-0.2-0.1-0.3-0.2c-0.1-0.1-0.1-0.2-0.2-0.3       c0-0.1-0.1-0.3-0.1-0.4c0-0.1,0-0.3,0.1-0.4c0-0.1,0.1-0.2,0.2-0.3c0.1-0.1,0.2-0.2,0.3-0.2c0.1-0.1,0.2-0.1,0.4-0.1       c0.1,0,0.3,0,0.4,0.1c0.1,0.1,0.2,0.1,0.3,0.2c0.1,0.1,0.1,0.2,0.2,0.3c0,0.1,0.1,0.3,0.1,0.4C16.3,21.6,16.3,21.8,16.3,21.9z        M24.4,16.6l0,0.2c0,0.2-0.1,0.4-0.2,0.6c-0.1,0.2-0.2,0.3-0.4,0.4c-0.2,0.1-0.3,0.2-0.5,0.2c-0.2,0-0.4,0.1-0.6,0.1l-0.4,0       v1.6H24v4.5H26v-7.5H24.4z M19.6,24.1h2.1v-2h-2.1V24.1z" fill="#ECF0F1" fill-rule="evenodd"/></g></g></g></g><g id="D51_4_"/><g id="Dolby"/><g id="Stereo_4_"/><g id="CC_4_"/><g id="HD_4_"/><g id="SD_4_"/><g id="Pause_02"/><g id="Play_02"/><g id="Left_02"/><g id="Right_02"/><g id="Down_02"/><g id="Up_02"/><g id="Urgent_02"/><g id="Info_02"/><g id="Help_02"/><g id="OK_02"/><g id="Remove__02"/><g id="Minus_02"/><g id="Plus_02"/><g id="Pause_01"/><g id="Play_01"/><g id="Left_01"/><g id="Right_01"/><g id="Down_01"/><g id="Up_01"/><g id="Urgent_01"/><g id="Info_01"/><g id="Help_01"/><g id="OK_01"/><g id="Remove_01"/><g id="Minus_01"/><g id="Plus_01"/><g id="Chevron_Light_Down_2_"/><g id="Chevron_Light_Up_2_"/><g id="Chevron_Heavy_Down_1_"/><g id="Chevron_Heavy_Up_3_"/><g id="Chevron_Light_Right_2_"/><g id="Chevron_Light_Left_2_"/><g id="Chevron_Heavy_Right_2_"/><g id="Chevron_Heavy_Left_2_"/><g id="Random_2_"/><g id="Rotation_Lock_4_"/><g id="Replay_1_"/><g id="Rotation_3_"/><g id="Refresh_2_"/><g id="Power_3_"/><g id="Transfer_4_"/><g id="Retweet_2_"/><g id="Loop_2_"/><g id="Delete_3_"/><g id="Brighten_3_"/><g id="Dim_3_"/><g id="Screen_Fit_4_"/><g id="Screen_Fill_3_"/><g id="Down_03"/><g id="Up_03"/><g id="Right_03"/><g id="Left_03"/><g id="Bell_3_"/><g id="Bell_Mute_4_"/><g id="Playlist_3_"/><g id="Octave_2_"/><g id="Quaver_2_"/><g id="Earbuds_4_"/><g id="Mute_Mic_1_"/><g id="Mic_4_"/><g id="Volume_Up"/><g id="Volume_Down"/><g id="Volume_Mute_4_"/><g id="Volume_3_"/><g id="Maximize"/><g id="Fullscreen_Enter_2_"/><g id="Fullscreen_Exit_2_"/><g id="Eject_2_"/><g id="Step_Forward_2_"/><g id="Fast-forward_1_"/><g id="Forward_2_"/><g id="Stop_2_"/><g id="Pause_2_"/><g id="Play_2_"/><g id="Rewind_2_"/><g id="Fast-backward"/><g id="Step_Backward_2_"/><g id="Record_2_"/></g><g id="Lockup"/></svg>